<?xml version="1.0" standalone="no"?>
<!DOCTYPE svg PUBLIC "-//W3C//DTD SVG 20010904//EN"
 "http://www.w3.org/TR/2001/REC-SVG-20010904/DTD/svg10.dtd">
<svg version="1.0" xmlns="http://www.w3.org/2000/svg"
 width="260.000000pt" height="260.000000pt" viewBox="0 0 260.000000 260.000000"
 preserveAspectRatio="xMidYMid meet">
<metadata>
Created by potrace 1.14, written by Peter Selinger 2001-2017
</metadata>
<g transform="translate(0.000000,260.000000) scale(0.100000,-0.100000)"
fill="#000000" stroke="none">
<path d="M1847 2191 c-3 -14 -11 -17 -29 -14 -21 4 -27 0 -32 -23 -5 -17 -10
-23 -14 -17 -5 7 -13 9 -21 4 -10 -7 -8 -12 10 -24 15 -11 26 -13 35 -7 8 7
13 5 16 -8 4 -15 0 -18 -26 -17 -17 1 -31 6 -31 11 -1 20 -31 54 -47 54 -10 0
-18 6 -18 14 0 11 -16 14 -66 15 l-65 0 3 -47 c2 -29 8 -47 16 -47 6 0 12 -3
12 -7 0 -5 0 -28 0 -53 0 -33 -4 -45 -15 -45 -8 0 -15 -7 -15 -15 0 -8 -7 -15
-15 -15 -14 0 -20 -17 -16 -47 1 -7 -7 -13 -19 -13 -11 0 -19 5 -18 12 3 12
-3 14 -42 17 -15 1 -20 8 -20 31 0 20 5 30 15 30 8 0 15 8 16 18 3 60 1 134
-4 139 -3 3 -31 6 -62 8 -46 1 -58 -2 -66 -17 -6 -11 -21 -18 -37 -18 -24 0
-28 -4 -27 -27 0 -20 -6 -28 -27 -34 -22 -6 -28 -3 -33 12 -4 10 -13 19 -21
19 -8 0 -14 7 -14 15 0 8 -3 15 -7 16 -5 0 -41 1 -81 2 l-72 2 -1 -32 c-3 -91
-1 -103 16 -103 11 0 14 -11 12 -47 -1 -27 -6 -46 -11 -43 -5 3 -12 -5 -17
-17 -5 -13 -16 -23 -24 -23 -12 0 -15 -7 -12 -29 4 -23 1 -30 -14 -34 -14 -4
-19 -14 -19 -37 0 -27 -3 -31 -22 -29 -27 4 -51 -9 -43 -22 11 -16 -116 -11
-129 6 -6 8 -22 16 -35 18 -14 2 -27 10 -30 18 -9 22 -31 21 -31 -1 0 -11 -7
-20 -15 -20 -8 0 -15 -7 -15 -15 0 -8 -6 -15 -14 -15 -8 0 -17 -8 -20 -17 -5
-16 -19 -18 -116 -16 -102 2 -110 0 -111 -18 -3 -38 -4 -42 -20 -48 -11 -4
-15 -18 -14 -45 0 -28 -4 -40 -15 -43 -19 -5 -25 -49 -8 -59 7 -5 8 -3 3 6 -6
9 -4 11 5 5 10 -6 10 -11 -3 -20 -10 -7 -17 -17 -17 -24 0 -6 -7 -11 -15 -11
-8 0 -15 -9 -15 -20 0 -13 -5 -18 -15 -14 -12 5 -15 -2 -15 -29 0 -25 -5 -36
-19 -40 -15 -4 -18 -13 -16 -62 1 -46 -2 -59 -15 -62 -12 -3 -16 -16 -17 -45
0 -26 -7 -46 -17 -53 -21 -16 -20 -35 2 -35 15 0 17 -6 14 -35 -3 -28 -1 -34
11 -30 9 4 16 -1 20 -14 4 -16 13 -21 36 -21 21 0 31 -5 31 -15 0 -8 7 -15 15
-15 8 0 15 -7 15 -15 0 -16 7 -17 128 -17 56 0 72 -3 72 -15 0 -8 5 -11 10 -8
6 4 7 12 4 18 -4 7 -3 8 2 4 5 -5 9 -14 10 -20 0 -7 2 -20 2 -30 1 -10 7 -15
13 -12 6 4 13 -2 16 -13 2 -11 14 -23 25 -25 11 -3 17 -10 13 -16 -5 -9 29
-17 58 -12 4 0 7 -7 7 -17 0 -17 8 -19 65 -17 55 1 65 -1 65 -16 0 -11 8 -16
26 -16 36 0 56 -22 26 -29 -17 -5 -22 -14 -22 -39 0 -31 -2 -33 -29 -29 -22 4
-30 0 -34 -16 -3 -11 -11 -20 -19 -20 -10 0 -14 -16 -13 -62 0 -51 3 -63 18
-66 14 -3 17 -15 17 -68 0 -50 3 -64 15 -64 8 0 15 -7 15 -15 0 -12 14 -15 65
-15 51 0 65 -3 65 -15 0 -8 6 -15 14 -15 8 0 16 -8 18 -18 5 -24 98 -26 98 -1
0 9 8 19 19 22 14 3 17 11 14 31 -5 24 -3 26 31 26 20 0 36 4 36 9 0 6 11 22
25 37 24 26 40 26 40 1 0 -20 23 -18 30 2 3 11 9 20 13 20 28 -4 52 3 52 16 0
11 11 15 36 15 28 0 35 3 30 15 -3 10 1 15 12 15 16 0 20 9 24 57 1 7 5 10 10
7 5 -3 6 -10 3 -15 -4 -5 -1 -9 4 -9 6 0 11 14 11 30 0 33 29 44 31 13 1 -10
2 -25 3 -33 1 -11 13 -15 44 -15 31 0 46 -5 53 -18 15 -25 99 -22 99 5 0 11 5
15 15 12 13 -5 15 7 15 79 0 78 -2 85 -21 90 -12 3 -18 10 -14 16 3 7 -2 11
-14 11 -12 0 -21 3 -21 6 0 10 54 59 63 56 4 -1 7 7 7 18 0 27 26 26 33 -1 3
-12 10 -18 16 -14 11 6 13 -1 14 -43 0 -15 6 -22 18 -22 11 0 19 -7 19 -15 0
-15 10 -19 43 -16 13 2 17 -5 17 -32 0 -27 5 -36 21 -40 12 -3 18 -10 14 -16
-3 -7 2 -11 14 -11 12 0 21 -7 21 -15 0 -10 10 -15 29 -15 20 0 30 -6 34 -19
6 -26 90 -24 95 2 2 9 12 17 22 17 13 0 17 5 14 15 -5 12 5 15 60 15 52 0 66
3 66 15 0 8 8 15 18 15 16 0 18 10 17 96 -1 85 1 98 17 102 14 3 18 15 18 53
0 27 -3 48 -7 48 -29 -5 -31 1 -24 79 0 6 7 12 14 12 8 0 14 6 15 13 2 26 8
47 17 54 4 4 5 3 1 -4 -3 -6 -2 -15 4 -18 6 -4 10 -3 9 2 -4 26 3 53 14 53 7
0 19 16 26 35 7 21 17 33 23 29 7 -5 9 -1 5 9 -3 10 -2 17 3 17 5 0 7 6 4 14
-3 8 -1 17 5 21 7 4 8 0 4 -11 -4 -11 -3 -15 5 -10 7 4 9 -2 7 -17 -4 -21 -1
-23 29 -23 30 1 35 4 39 30 3 22 -1 30 -15 34 -10 2 -18 11 -18 18 0 8 -6 14
-14 14 -7 0 -16 9 -19 20 -3 11 -9 19 -14 18 -4 -2 -9 0 -11 5 -5 17 -1 27 11
27 9 0 13 19 15 60 2 47 -2 61 -15 69 -23 13 -25 58 -3 64 13 3 18 15 18 48 1
86 1 89 17 83 12 -5 15 2 15 30 0 25 -4 36 -15 36 -8 0 -15 7 -15 15 0 8 -6
15 -14 15 -8 0 -18 5 -22 11 -4 8 1 9 17 4 23 -7 23 -7 4 8 -11 9 -20 21 -20
29 0 7 -7 13 -15 13 -10 0 -16 12 -18 33 -3 32 -32 48 -32 17 0 -11 -12 -15
-46 -15 -43 0 -45 1 -33 18 13 16 13 16 -7 0 -11 -10 -25 -18 -31 -18 -6 0
-13 -9 -16 -21 -8 -29 -27 -14 -27 21 0 19 -6 30 -17 32 -14 3 -18 13 -18 48
0 43 -1 45 -32 47 -23 2 -32 -2 -35 -14 -2 -11 -14 -18 -31 -18 -27 -2 -32 7
-29 48 1 10 -5 17 -17 17 -11 0 -21 9 -24 21 -3 12 -10 18 -16 14 -7 -3 -11 3
-11 15 0 12 -5 18 -10 15 -14 -8 -30 36 -20 55 5 8 8 19 8 23 0 5 4 12 8 15 4
4 4 2 0 -5 -3 -6 -3 -14 2 -17 4 -2 8 6 8 20 0 14 -5 23 -11 20 -7 -2 -12 2
-12 9 0 7 6 11 14 8 7 -3 13 2 13 11 0 9 -7 19 -15 22 -8 4 -15 12 -15 20 0
23 -67 18 -73 -5z m3 -52 c0 -4 10 -5 23 -2 12 3 18 1 12 -4 -13 -10 -13 -36
0 -45 5 -4 0 -6 -11 -6 -11 1 -21 8 -21 15 0 6 5 9 10 6 6 -3 7 -1 4 5 -4 5
-16 8 -27 5 -15 -4 -20 0 -20 14 0 11 7 20 15 20 8 0 15 -4 15 -8z m-260 -33
c0 -3 -4 -8 -10 -11 -5 -3 -10 -1 -10 4 0 6 5 11 10 11 6 0 10 -2 10 -4z m100
-11 c0 -8 -7 -15 -15 -15 -8 0 -15 -7 -15 -15 0 -8 -9 -15 -21 -15 -16 0 -19
4 -14 21 5 14 4 19 -4 15 -7 -5 -9 -1 -5 8 8 22 74 22 74 1z m-290 -44 c0 -16
-6 -31 -15 -35 -14 -5 -20 5 -16 27 1 4 -6 7 -16 5 -10 -2 -19 4 -21 15 -3 14
4 17 32 17 33 0 36 -2 36 -29z m-232 -20 c-2 -10 -13 -16 -31 -15 -27 1 -31
-4 -27 -43 1 -17 -4 -23 -19 -23 -19 0 -21 5 -17 48 2 26 4 47 5 48 1 0 21 0
46 0 36 0 45 -3 43 -15z m166 -3 c5 -19 8 -20 16 -8 7 11 8 8 6 -13 -1 -15 -6
-29 -9 -32 -4 -3 -5 -2 -2 1 2 4 0 15 -6 26 -7 13 -19 18 -37 16 -19 -2 -28 2
-30 15 -6 28 54 24 62 -5z m578 -55 c-6 -2 -9 -10 -6 -15 4 -7 2 -8 -5 -4 -13
9 -5 26 12 25 9 0 8 -2 -1 -6z m-255 -55 c-3 -32 -8 -34 -57 -29 -8 1 -9 35
-1 59 1 1 15 2 32 2 28 0 30 -2 26 -32z m-261 -20 c-3 -15 -1 -18 11 -14 9 4
17 -1 20 -14 3 -11 12 -20 19 -20 9 0 14 -11 14 -30 0 -20 -5 -30 -15 -30 -10
0 -15 10 -15 30 0 29 -14 37 -52 31 -4 0 -4 7 -1 16 4 10 2 14 -4 10 -5 -3 -9
3 -7 16 3 26 1 24 20 24 10 0 14 -7 10 -19z m422 -40 c-3 -60 -4 -63 -30 -66
-16 -2 -28 0 -29 5 0 4 -2 16 -4 26 -2 9 5 22 16 27 12 7 19 21 19 40 0 20 5
30 15 30 13 0 15 -11 13 -62z m132 -59 l0 -81 -32 2 c-56 3 -68 1 -68 -15 0
-10 -10 -15 -30 -15 -20 0 -30 5 -30 15 0 8 7 15 15 15 8 0 15 9 15 19 0 12 7
18 17 17 14 -1 16 7 14 47 -2 39 0 47 16 48 37 3 43 4 42 13 -1 12 23 26 33
20 4 -3 8 -41 8 -85z m-811 34 c1 -7 -8 -13 -18 -13 -15 0 -19 -6 -16 -20 5
-27 -4 -52 -17 -44 -5 3 -12 -3 -15 -15 -7 -27 -19 -27 -33 -1 -6 11 -15 18
-21 15 -5 -4 -9 3 -9 14 0 12 7 21 15 21 8 0 15 7 15 16 0 8 5 12 11 9 6 -4
13 2 16 14 3 12 13 21 25 21 10 0 17 4 14 9 -4 5 0 11 6 14 13 4 26 -16 27
-40z m551 -24 c0 -8 5 -7 15 1 13 11 14 10 9 -4 -5 -13 -21 -16 -80 -16 -65 0
-74 -2 -74 -18 0 -10 -7 -19 -15 -19 -10 0 -15 11 -15 34 l0 33 80 0 c52 0 80
-4 80 -11z m-393 -65 c-3 -3 -12 -4 -19 -1 -8 3 -5 6 6 6 11 1 17 -2 13 -5z
m228 -3 c3 -5 -3 -12 -12 -15 -14 -4 -18 -16 -18 -43 1 -21 -1 -43 -2 -49 -3
-8 -88 -12 -124 -5 -3 1 -5 21 -5 46 1 48 3 50 69 45 19 -1 27 3 27 14 0 18
54 23 65 7z m-227 -63 c-3 -50 -4 -53 -30 -53 -16 -1 -29 5 -29 12 -8 77 -1
91 44 92 16 1 18 -6 15 -51z m735 43 c9 -1 17 -8 17 -16 0 -8 7 -15 15 -15 11
0 15 -12 15 -50 0 -38 -4 -50 -15 -50 -8 0 -15 9 -15 20 0 11 -3 19 -7 19 -23
-4 -35 3 -29 16 4 10 -1 15 -14 15 -11 0 -20 7 -20 15 0 8 -7 15 -15 15 -8 0
-15 6 -15 13 0 20 6 23 37 21 15 -1 36 -3 46 -3z m277 -16 c0 -8 -6 -15 -14
-15 -17 0 -28 14 -19 24 12 12 33 6 33 -9z m-1140 -51 c0 -19 4 -33 9 -30 11
7 33 -18 24 -27 -3 -4 3 -7 14 -7 17 0 20 -5 17 -30 -3 -28 -2 -30 31 -30 24
0 35 5 35 15 0 8 7 15 15 15 8 0 15 -7 15 -15 0 -8 -7 -15 -15 -15 -12 0 -15
-14 -15 -64 0 -69 -8 -80 -48 -65 -17 6 -22 15 -20 31 2 15 -2 23 -12 24 -8 1
-19 3 -25 4 -5 1 -13 2 -17 1 -5 0 -8 33 -8 75 0 70 -1 75 -17 63 -14 -12 -16
-12 -11 1 8 22 -9 60 -26 60 -10 0 -13 6 -10 15 4 9 19 15 35 15 27 0 29 -3
29 -36z m520 21 c0 -8 7 -15 15 -15 8 0 15 -3 16 -7 4 -50 2 -93 -4 -93 -5 0
-6 -4 -2 -9 3 -5 0 -13 -6 -17 -8 -4 -9 -3 -5 4 4 7 2 12 -3 12 -6 0 -11 -14
-11 -31 0 -21 -4 -28 -12 -23 -10 6 -10 4 0 -8 10 -13 10 -17 -3 -21 -8 -4
-14 -3 -14 1 5 31 -4 55 -21 59 -16 4 -19 11 -15 34 4 24 2 29 -15 29 -17 0
-20 6 -18 35 2 32 4 35 35 35 23 0 33 5 33 15 0 8 7 15 15 15 8 0 15 -7 15
-15z m520 0 c0 -8 -7 -15 -15 -15 -8 0 -15 7 -15 15 0 8 7 15 15 15 8 0 15 -7
15 -15z m151 -48 c-10 -9 -11 -8 -5 6 3 10 9 15 12 12 3 -3 0 -11 -7 -18z
m-1378 -17 c4 0 5 4 2 10 -4 6 1 7 11 3 14 -5 12 -9 -11 -21 -22 -11 -29 -12
-36 -1 -11 18 1 33 14 20 6 -6 15 -11 20 -11z m57 -36 c0 -21 -27 -17 -33 5
-3 14 0 17 14 14 11 -3 19 -12 19 -19z m876 1 c4 -8 13 -15 21 -15 10 0 13 -9
11 -32 -3 -30 -6 -33 -35 -34 -62 -3 -65 -4 -59 -19 4 -12 -2 -15 -29 -13 -32
2 -35 5 -35 35 0 21 5 33 14 33 7 0 16 9 19 21 3 12 10 18 16 14 6 -3 11 1 11
9 0 21 58 22 66 1z m261 0 c0 -8 -6 -15 -13 -15 -6 0 -14 7 -18 15 -3 10 1 15
13 15 10 0 18 -7 18 -15z m-101 -27 c4 -7 3 -8 -4 -4 -7 4 -12 2 -12 -3 0 -6
5 -11 10 -11 6 0 10 -9 10 -20 0 -13 5 -18 15 -14 11 4 15 0 15 -16 0 -16 4
-20 15 -16 13 5 20 -5 16 -26 0 -5 7 -8 17 -8 10 0 19 -7 19 -15 0 -24 -104
-24 -123 1 -6 8 -16 14 -22 14 -19 0 -21 28 -1 33 15 4 19 14 19 44 0 48 11
66 26 41z m-1103 -31 c-2 -4 -3 -11 -3 -15 0 -5 -7 -9 -15 -9 -8 0 -15 8 -15
18 0 11 7 16 18 15 9 -2 16 -6 15 -9z m522 -7 c0 -8 6 -15 14 -15 8 0 17 -7
20 -15 3 -8 15 -16 26 -18 35 -5 46 -12 40 -22 -3 -5 0 -10 8 -10 8 0 17 -7
21 -15 6 -16 3 -16 -94 -16 -73 0 -73 0 -66 16 4 12 -3 15 -29 15 -24 0 -35 5
-35 15 0 8 7 15 15 15 11 0 15 11 15 36 0 34 1 35 33 32 20 -2 32 -8 32 -18z
m-392 -98 c-2 -7 2 -12 8 -12 14 0 59 -47 59 -61 0 -5 6 -9 14 -9 16 0 28 -48
14 -56 -5 -3 -7 -12 -4 -20 3 -7 1 -16 -3 -19 -10 -6 -21 18 -21 46 0 10 -7
19 -15 19 -8 0 -15 7 -15 15 0 8 -6 15 -14 15 -8 0 -17 9 -21 20 -3 11 -12 19
-18 17 -7 -1 -13 12 -15 31 -3 28 0 33 15 30 10 -2 17 -10 16 -16z m1270 5 c3
-7 -3 -13 -13 -13 -10 0 -16 6 -13 13 3 7 9 13 13 13 4 0 10 -6 13 -13z m-65
-37 c-3 -16 -58 -24 -58 -8 0 5 -10 7 -22 3 -22 -6 -23 -6 -3 10 25 20 87 17
83 -5z m-350 -30 c12 -13 12 -13 6 0 -4 8 -3 11 1 7 15 -13 23 -96 12 -114 -7
-11 -66 -11 -85 0 -7 5 -10 13 -7 18 4 5 -3 9 -14 9 -12 0 -21 7 -21 15 0 8
-7 15 -15 15 -8 0 -15 7 -15 15 0 8 -7 15 -15 15 -14 0 -21 21 -11 31 3 2 38
4 78 4 53 0 77 -4 86 -15z m-636 3 c-6 -2 -9 -10 -6 -15 4 -7 2 -8 -5 -4 -13
9 -5 26 12 25 9 0 8 -2 -1 -6z m-542 -38 c0 -8 -6 -15 -14 -15 -9 0 -16 -12
-18 -32 -2 -25 -7 -32 -20 -30 -16 3 -23 -9 -19 -31 1 -5 -3 -6 -9 -2 -6 3 -8
10 -5 15 3 4 0 10 -6 12 -15 5 0 38 18 38 8 0 11 5 8 11 -4 6 2 13 14 16 12 3
21 12 21 19 0 8 7 14 15 14 8 0 15 -7 15 -15z m620 0 c0 -10 -10 -15 -33 -15
-23 0 -34 5 -34 15 0 10 11 15 34 15 23 0 33 -5 33 -15z m221 8 c0 -5 2 -18 5
-30 3 -18 -1 -23 -16 -23 -16 0 -20 -7 -20 -35 0 -24 -5 -35 -15 -35 -8 0 -15
-7 -15 -15 0 -10 -10 -15 -34 -15 -29 0 -34 3 -31 19 3 15 -2 17 -31 14 -25
-3 -34 0 -34 12 0 8 7 15 15 15 8 0 15 9 15 20 0 11 3 19 8 19 22 -4 34 3 28
16 -4 12 4 15 44 15 38 0 50 4 50 15 0 15 29 22 31 8z m559 -8 c0 -10 -10 -15
-33 -15 -23 0 -34 5 -34 15 0 10 11 15 34 15 23 0 33 -5 33 -15z m-1109 -57
c5 -60 0 -88 -17 -88 -11 0 -14 15 -14 65 0 49 3 65 14 65 9 0 15 -14 17 -42z
m649 28 c0 -7 9 -16 20 -19 11 -3 19 -11 18 -18 -2 -7 4 -13 12 -14 10 0 16
-12 17 -35 1 -19 2 -43 2 -53 1 -9 4 -16 9 -15 4 2 7 -1 7 -7 0 -5 -3 -9 -7
-8 -5 2 -8 -1 -8 -5 0 -7 -57 -9 -92 -3 -5 0 -8 44 -8 96 0 78 3 95 15 95 8 0
15 -6 15 -14z m-1330 -90 c0 -28 -4 -57 -10 -64 -7 -9 -7 -9 2 -2 19 16 38 12
38 -8 0 -10 -7 -19 -15 -19 -8 0 -15 4 -15 9 0 4 -4 7 -9 6 -5 -2 -8 0 -7 4 0
4 -8 14 -19 23 -11 9 -15 14 -9 11 8 -4 12 10 12 40 2 84 32 85 32 0z m475 4
c8 0 12 -17 12 -45 0 -34 -4 -46 -18 -50 -10 -4 -18 -11 -16 -17 1 -7 -10 -13
-26 -14 -19 -2 -25 1 -21 9 5 8 3 8 -7 0 -24 -23 -39 -15 -39 22 0 24 5 35 15
35 10 0 15 10 15 30 0 20 5 30 15 30 8 0 15 6 15 14 0 22 24 25 34 5 5 -11 14
-19 21 -19z m45 14 c0 -16 -2 -16 -24 -8 -13 5 -14 9 -5 20 13 16 29 9 29 -12z
m420 -9 c0 -19 4 -35 9 -35 6 0 22 -12 38 -26 22 -20 25 -27 13 -34 -15 -9
-33 7 -24 22 3 4 -4 8 -15 8 -12 0 -21 7 -21 15 0 8 -7 15 -15 15 -15 0 -22
50 -8 63 15 15 23 5 23 -28z m848 -30 c-2 -32 -4 -35 -35 -35 -24 0 -33 5 -33
16 0 12 7 15 25 12 21 -4 23 -2 15 13 -8 13 -6 19 8 22 9 3 18 5 20 6 1 0 2
-15 0 -34z m-1584 -29 c15 -13 26 -28 26 -35 0 -6 7 -11 15 -11 8 0 15 -7 15
-15 0 -24 -57 -20 -65 5 -3 11 -12 20 -20 20 -9 0 -13 11 -13 30 1 36 9 37 42
6z m1351 -24 c0 -18 -20 -15 -23 4 -3 10 1 15 10 12 7 -3 13 -10 13 -16z m101
3 c-2 -17 -9 -19 -29 -12 -9 4 -8 8 3 16 21 15 29 14 26 -4z m-919 -2 c-4 -3
-2 -12 4 -19 14 -17 4 -33 -20 -31 -17 1 -26 27 -9 27 4 0 8 7 8 15 0 8 5 15
12 15 6 0 8 -3 5 -7z m-844 -22 c4 -1 7 -7 7 -15 0 -7 9 -16 21 -19 12 -3 18
-10 14 -16 -3 -7 2 -11 14 -11 14 0 21 -6 21 -20 0 -14 5 -18 16 -13 12 4 15
1 13 -12 -3 -11 -15 -19 -31 -21 -25 -2 -33 5 -29 29 0 4 -15 7 -34 7 -24 0
-35 5 -35 15 0 8 -7 15 -15 15 -10 0 -15 11 -15 35 0 31 3 34 23 31 12 -3 25
-5 30 -5z m1927 -62 c0 -19 -5 -29 -15 -29 -8 0 -15 7 -15 15 0 8 -9 15 -20
15 -26 0 -15 28 13 32 31 6 37 1 37 -33z m-616 17 c-3 -8 3 -16 16 -19 12 -3
19 -10 15 -16 -6 -10 8 -16 28 -12 5 1 7 -6 5 -16 -3 -14 -13 -18 -51 -18 -39
1 -47 -2 -47 -17 0 -28 -56 -25 -63 3 -4 14 -11 20 -21 16 -12 -5 -15 1 -14
28 1 35 1 35 50 35 36 0 48 4 48 15 0 8 9 15 20 15 12 0 17 -5 14 -14z m386
-1 c0 -8 -7 -15 -15 -15 -8 0 -15 7 -15 15 0 8 7 15 15 15 8 0 15 -7 15 -15z
m327 0 c0 -7 -6 -12 -13 -12 -7 0 -11 4 -8 8 2 4 -2 9 -8 12 -7 3 -4 5 8 4 11
-1 21 -6 21 -12z m-943 -30 c-4 -10 0 -15 15 -15 14 0 21 -6 21 -20 0 -11 6
-19 13 -17 7 1 13 -11 15 -30 2 -24 -1 -33 -12 -33 -9 0 -16 12 -18 33 -3 28
-6 32 -33 32 -29 0 -30 -2 -33 -47 -2 -34 -7 -48 -18 -48 -7 0 -14 7 -14 15 0
8 -7 15 -15 15 -10 0 -15 11 -15 35 0 22 4 34 12 33 12 -3 14 3 17 42 1 16 8
20 36 20 26 0 33 -3 29 -15z m-614 -52 c-1 -18 -17 -32 -37 -30 -20 1 -22 27
-1 27 5 0 6 -6 3 -12 -3 -7 0 -5 7 5 13 17 28 23 28 10z m451 -6 c3 -5 4 -19
1 -33 -3 -19 -11 -24 -33 -24 -18 0 -29 -5 -29 -14 0 -17 -17 -24 -46 -18 -18
3 -22 11 -22 33 1 24 6 29 27 30 14 1 29 1 34 0 4 0 7 7 7 18 0 13 7 18 28 17
15 -1 30 -5 33 -9z m649 -9 c0 -18 -14 -22 -55 -19 -11 0 -39 2 -62 3 -37 1
-54 14 -39 29 3 2 39 4 80 4 66 0 76 -2 76 -17z m-1006 -33 c-7 -18 -64 -20
-64 -2 0 8 -3 7 -10 -3 -5 -8 -12 -11 -15 -8 -15 15 9 28 50 28 35 0 43 -3 39
-15z m121 6 c3 -5 2 -12 -3 -15 -5 -3 -9 1 -9 9 0 17 3 19 12 6z m849 -9 c3
-5 -1 -9 -9 -9 -8 0 -12 4 -9 9 3 4 7 8 9 8 2 0 6 -4 9 -8z m-190 -24 c-5 -9
-2 -9 9 1 15 12 17 11 17 -3 0 -15 15 -20 53 -17 11 2 17 -5 17 -18 0 -14 -5
-19 -15 -15 -10 4 -15 0 -15 -14 0 -12 -9 -22 -21 -25 -12 -3 -18 -10 -14 -16
4 -7 -7 -11 -29 -11 -23 0 -36 -5 -36 -13 0 -27 -25 -13 -27 15 -2 25 1 28 26
28 32 0 42 7 35 24 -3 7 -25 12 -60 11 -30 0 -58 2 -62 5 -15 11 -11 30 7 30
10 0 21 7 25 15 4 10 20 15 51 15 34 0 44 -3 39 -12z m-164 -40 c0 -11 -5 -18
-12 -16 -19 7 -21 35 -3 35 8 0 15 -9 15 -19z m-189 -48 c19 0 29 -5 29 -15 0
-11 -12 -15 -50 -15 -44 0 -50 -3 -50 -21 0 -13 -4 -18 -12 -13 -7 5 -8 3 -2
-7 17 -28 14 -49 -9 -54 -27 -6 -54 -2 -64 10 -4 4 -3 5 4 1 6 -3 14 -2 18 4
5 8 -30 15 -57 11 -5 0 -8 8 -8 19 0 11 -7 20 -15 20 -8 0 -15 7 -15 15 0 9 9
15 25 15 15 0 25 6 25 14 0 10 14 16 43 18 30 2 41 7 39 17 -3 12 -1 12 14 0
10 -8 15 -9 11 -2 -12 20 17 22 32 2 8 -11 25 -19 42 -19z m709 -45 c0 -8 -7
-15 -15 -15 -8 0 -15 7 -15 15 0 8 7 15 15 15 8 0 15 -7 15 -15z m-1003 -29
c0 -7 -15 -18 -34 -24 -29 -9 -33 -8 -33 7 0 24 9 31 40 31 16 0 27 -6 27 -14z
m1023 4 c-12 -8 -12 -10 -1 -10 8 0 12 -3 8 -6 -9 -9 -28 6 -22 17 4 5 12 9
18 9 7 0 6 -4 -3 -10z m-440 -75 c0 -8 6 -15 14 -15 23 0 26 -49 5 -61 -17 -9
-19 -6 -19 26 0 24 -4 35 -15 35 -8 0 -15 7 -15 15 0 8 7 15 15 15 8 0 15 -7
15 -15z m-622 -77 c-4 -46 -28 -49 -28 -4 0 26 4 36 16 36 11 0 14 -8 12 -32z
m238 21 c4 -8 9 -7 15 2 7 11 9 11 9 -2 0 -11 -11 -18 -30 -21 -19 -3 -30 0
-30 7 0 24 24 33 36 14z m222 -23 c3 -21 -2 -29 -16 -33 -14 -3 -19 -12 -17
-29 1 -16 -4 -28 -16 -35 -11 -5 -19 -17 -19 -25 0 -10 -6 -14 -15 -10 -10 3
-15 -1 -15 -13 0 -15 -7 -19 -32 -19 l-33 0 -1 64 c0 62 0 63 29 70 22 5 26 8
16 15 -9 6 -10 9 -2 9 19 0 26 -20 9 -26 -9 -3 -16 -11 -16 -17 0 -7 4 -7 12
1 7 7 20 12 30 12 10 0 18 6 18 14 0 8 9 17 20 21 11 3 19 9 19 13 -3 17 2 23
14 20 6 -3 13 -17 15 -32z m227 -54 c-1 -34 -4 -37 -33 -40 -17 -2 -40 2 -49
8 -17 11 -17 11 0 6 11 -3 15 -2 12 4 -3 6 -16 10 -29 10 -27 0 -36 8 -30 24
7 18 58 12 62 -7 5 -22 32 -22 33 1 1 9 1 21 0 26 -3 14 23 26 30 15 3 -6 5
-27 4 -47z m-555 8 c0 -11 -7 -20 -15 -20 -8 0 -15 -7 -15 -15 0 -8 -7 -15
-15 -15 -8 0 -15 7 -15 15 0 8 7 15 15 15 8 0 15 6 15 14 0 12 8 19 28 25 1 1
2 -8 2 -19z m-212 -37 c-15 -18 -48 -16 -48 2 0 11 9 15 29 13 23 -2 28 -5 19
-15z m246 -98 c-7 -16 -49 -21 -58 -6 -8 13 5 21 35 21 21 0 27 -4 23 -15z
m-224 -35 c0 -13 -5 -18 -15 -14 -8 4 -15 12 -15 20 0 8 7 14 15 14 8 0 15 -9
15 -20z m128 -46 c2 -29 0 -35 -14 -32 -30 5 -24 67 6 68 3 0 7 -16 8 -36z"/>
<path d="M1170 699 c0 -5 5 -7 10 -4 6 3 10 8 10 11 0 2 -4 4 -10 4 -5 0 -10
-5 -10 -11z"/>
<path d="M2390 1079 c0 -5 5 -7 10 -4 6 3 10 8 10 11 0 2 -4 4 -10 4 -5 0 -10
-5 -10 -11z"/>
</g>
</svg>
