<svg width="40" height="40" viewBox="0 0 40 40" fill="none" xmlns="http://www.w3.org/2000/svg">
<g clip-path="url(#clip0_7_165)">
<path d="M40 20C40 25.3043 37.8929 30.3914 34.1421 34.1421C30.3914 37.8929 25.3043 40 20 40C14.6957 40 9.60859 37.8929 5.85786 34.1421C2.10714 30.3914 0 25.3043 0 20C0 14.6957 2.10714 9.60859 5.85786 5.85786C9.60859 2.10714 14.6957 0 20 0C25.3043 0 30.3914 2.10714 34.1421 5.85786C37.8929 9.60859 40 14.6957 40 20ZM23.2075 10.005H19.9275L15.18 13.4625V16.64L19.765 13.345H19.9275V30H23.2075V10.005Z" fill="#B0916A"/>
</g>
<defs>
<clipPath id="clip0_7_165">
<rect width="40" height="40" fill="white"/>
</clipPath>
</defs>
</svg>
