<svg width="40" height="40" viewBox="0 0 40 40" fill="none" xmlns="http://www.w3.org/2000/svg">
<g clip-path="url(#clip0_7_173)">
<path d="M40 20C40 25.3043 37.8929 30.3914 34.1421 34.1421C30.3914 37.8929 25.3043 40 20 40C14.6957 40 9.60859 37.8929 5.85786 34.1421C2.10714 30.3914 0 25.3043 0 20C0 14.6957 2.10714 9.60859 5.85786 5.85786C9.60859 2.10714 14.6957 0 20 0C25.3043 0 30.3914 2.10714 34.1421 5.85786C37.8929 9.60859 40 14.6957 40 20ZM16.615 15.6C16.615 13.8725 17.8475 12.335 19.955 12.335C21.845 12.335 23.2375 13.565 23.2375 15.425C23.2375 17.1675 22.065 18.5 20.9825 19.6875L13.555 27.92V30H26.915V27.2325H18.17V27.04L23.105 21.49L23.345 21.2225C25.065 19.315 26.5625 17.6525 26.5625 15.1475C26.5625 11.9825 23.985 9.61 20.03 9.61C15.635 9.61 13.4375 12.585 13.4375 15.615V15.7775H16.615V15.6025V15.6Z" fill="#B0916A"/>
</g>
<defs>
<clipPath id="clip0_7_173">
<rect width="40" height="40" fill="white"/>
</clipPath>
</defs>
</svg>
