<svg width="40" height="40" viewBox="0 0 40 40" fill="none" xmlns="http://www.w3.org/2000/svg">
<g clip-path="url(#clip0_7_179)">
<path d="M40 20C40 25.3043 37.8929 30.3914 34.1421 34.1421C30.3914 37.8929 25.3043 40 20 40C14.6957 40 9.60859 37.8929 5.85786 34.1421C2.10714 30.3914 0 25.3043 0 20C0 14.6957 2.10714 9.60859 5.85786 5.85786C9.60859 2.10714 14.6957 0 20 0C25.3043 0 30.3914 2.10714 34.1421 5.85786C37.8929 9.60859 40 14.6957 40 20ZM19.795 21.035C22.095 21.035 23.6325 22.385 23.6475 24.33C23.6775 26.3075 22.11 27.73 19.6775 27.715C17.525 27.7 15.9725 26.5425 15.8275 25.05H12.76C12.8775 27.9925 15.385 30.41 19.645 30.41C23.7775 30.41 27.03 28.0675 26.97 24.42C26.9125 21.225 24.3925 19.805 22.635 19.63V19.455C24.1275 19.205 26.3975 17.6075 26.34 14.765C26.265 11.8225 23.7325 9.58 19.7475 9.61C15.56 9.625 13.2725 12.07 13.185 14.91H16.305C16.395 13.52 17.6975 12.275 19.675 12.275C21.6375 12.275 23.045 13.49 23.045 15.2625C23.06 17.05 21.6375 18.355 19.69 18.355H17.595V21.035H19.7925H19.795Z" fill="#B0916A"/>
</g>
<defs>
<clipPath id="clip0_7_179">
<rect width="40" height="40" fill="white"/>
</clipPath>
</defs>
</svg>
