<svg width="48" height="48" viewBox="0 0 48 48" fill="none" xmlns="http://www.w3.org/2000/svg">
<path d="M42 3C42.7957 3 43.5587 3.31607 44.1213 3.87868C44.6839 4.44129 45 5.20435 45 6V30C45 30.7956 44.6839 31.5587 44.1213 32.1213C43.5587 32.6839 42.7957 33 42 33H34.5C33.5685 33 32.6498 33.2169 31.8167 33.6334C30.9836 34.05 30.2589 34.6548 29.7 35.4L24 42.999L18.3 35.4C17.7411 34.6548 17.0164 34.05 16.1833 33.6334C15.3501 33.2169 14.4315 33 13.5 33H6C5.20435 33 4.44129 32.6839 3.87868 32.1213C3.31607 31.5587 3 30.7956 3 30V6C3 5.20435 3.31607 4.44129 3.87868 3.87868C4.44129 3.31607 5.20435 3 6 3H42ZM6 0C4.4087 0 2.88258 0.632141 1.75736 1.75736C0.632141 2.88258 0 4.4087 0 6L0 30C0 31.5913 0.632141 33.1174 1.75736 34.2426C2.88258 35.3679 4.4087 36 6 36H13.5C13.9657 36 14.4251 36.1084 14.8416 36.3167C15.2582 36.525 15.6206 36.8274 15.9 37.2L21.6 44.799C21.8794 45.1716 22.2418 45.474 22.6584 45.6823C23.0749 45.8906 23.5343 45.999 24 45.999C24.4657 45.999 24.9251 45.8906 25.3416 45.6823C25.7582 45.474 26.1206 45.1716 26.4 44.799L32.1 37.2C32.3794 36.8274 32.7418 36.525 33.1584 36.3167C33.5749 36.1084 34.0343 36 34.5 36H42C43.5913 36 45.1174 35.3679 46.2426 34.2426C47.3679 33.1174 48 31.5913 48 30V6C48 4.4087 47.3679 2.88258 46.2426 1.75736C45.1174 0.632141 43.5913 0 42 0L6 0Z" fill="#B0916A"/>
<path d="M9 10.5C9 10.1022 9.15804 9.72064 9.43934 9.43934C9.72064 9.15804 10.1022 9 10.5 9H37.5C37.8978 9 38.2794 9.15804 38.5607 9.43934C38.842 9.72064 39 10.1022 39 10.5C39 10.8978 38.842 11.2794 38.5607 11.5607C38.2794 11.842 37.8978 12 37.5 12H10.5C10.1022 12 9.72064 11.842 9.43934 11.5607C9.15804 11.2794 9 10.8978 9 10.5ZM9 18C9 17.6022 9.15804 17.2206 9.43934 16.9393C9.72064 16.658 10.1022 16.5 10.5 16.5H37.5C37.8978 16.5 38.2794 16.658 38.5607 16.9393C38.842 17.2206 39 17.6022 39 18C39 18.3978 38.842 18.7794 38.5607 19.0607C38.2794 19.342 37.8978 19.5 37.5 19.5H10.5C10.1022 19.5 9.72064 19.342 9.43934 19.0607C9.15804 18.7794 9 18.3978 9 18ZM9 25.5C9 25.1022 9.15804 24.7206 9.43934 24.4393C9.72064 24.158 10.1022 24 10.5 24H25.5C25.8978 24 26.2794 24.158 26.5607 24.4393C26.842 24.7206 27 25.1022 27 25.5C27 25.8978 26.842 26.2794 26.5607 26.5607C26.2794 26.842 25.8978 27 25.5 27H10.5C10.1022 27 9.72064 26.842 9.43934 26.5607C9.15804 26.2794 9 25.8978 9 25.5Z" fill="#B0916A"/>
</svg>
