<svg width="48" height="48" viewBox="0 0 48 48" fill="none" xmlns="http://www.w3.org/2000/svg">
<path d="M6.444 46.5V44.301H6.42225L6.58125 44.0265H1.5V46.5H6.444ZM8.667 40.4535L9.9495 38.2537H5.805L7.8765 35.505H11.5522L12.8348 33.306H9.51825L11.1675 31.1062H14.118L14.9775 29.6325H12.2655L13.6335 27.8123H16.0395L16.692 26.6932H14.4623L15.5377 25.293H17.5087L18.162 24.1725H16.3522L17.1952 23.0527H18.816L19.305 22.2135H17.8237L18.5272 21.2805H19.8503L20.2853 20.5343H19.0845L19.6448 19.7887H20.7203L21.012 19.2877H20.0175L20.4802 18.6705H21.372L21.594 18.2902H20.7638L21.1275 17.8148H21.8715L22.0928 17.4345H21.4042L21.69 17.0535H20.4847C20.4847 17.0535 19.2668 16.569 17.9955 16.3485C17.0655 14.8448 16.1947 12.4612 14.2432 13.5922C13.8654 13.8136 13.4701 14.0037 13.0613 14.1608C12.783 13.6598 12.4418 13.218 11.9475 12.9907C11.7235 12.8874 11.4795 12.8347 11.2327 12.8362C10.6733 12.8362 10.0927 13.0883 9.50775 13.4265C7.94325 11.5575 7.6185 8.00925 4.767 9.82725C3.89775 10.3807 3.15675 11.4975 2.59875 12.5632C1.91325 11.502 1.5 10.524 1.5 10.524V44.0265L4.17375 40.4528H8.667V40.4535ZM41.5785 44.301H41.556V46.5H46.5V44.0265H41.4187L41.5785 44.301ZM37.7895 42.3525L35.3145 37.2967L34.4378 35.505L30.1245 26.694L29.7202 25.8675L28.8915 24.1725L28.8405 24.0675L27.9323 22.2127L27.4762 21.2797L27.111 20.5335L27.0225 20.3535L26.5005 19.287L26.199 18.6698L26.013 18.2895L25.7798 17.814L25.4077 17.0527H25.3035L25.4768 17.4338H22.5247L22.698 17.0527H22.5938L22.2218 17.814L21.9885 18.2895L21.8025 18.6698L21.501 19.287L20.979 20.3535L20.8905 20.5335L20.5252 21.2797L20.0693 22.2127L19.161 24.0675L19.11 24.1725L18.2812 25.8675L17.877 26.694L13.5623 35.505L12.6855 37.2967L10.2105 42.3525L9.39075 44.0265L9.25575 44.301H9.2775V46.5H38.721V44.301H38.7428L38.6077 44.0265L37.7895 42.3525ZM22.3507 17.8148H25.6493L25.866 18.2902H22.1332L22.3507 17.8148ZM21.96 18.6705H26.0393L26.3213 19.2877H21.678L21.96 18.6705ZM21.45 19.7887H26.55L26.8905 20.5343H21.1087L21.45 19.7887ZM20.7682 21.2805H27.231L27.6562 22.2135H20.3422L20.7682 21.2805ZM19.9598 23.0527H28.0395L28.5518 24.1725H19.4482L19.9598 23.0527ZM18.9368 25.2937H29.0632L29.703 26.694H18.297L18.9368 25.2937ZM17.787 27.813H30.213L31.044 29.6333H16.9552L17.787 27.813ZM16.2833 31.107H31.7168L32.721 33.3068H15.279L16.2833 31.107ZM14.2755 35.505H33.7245L34.98 38.2537H13.02L14.2755 35.505ZM10.3853 44.0265L12.0173 40.4528H35.9835L37.6155 44.0265H10.3853ZM46.5 6C46.5 6 45.4717 8.5905 44.5365 8.991C42.3833 9.91125 41.0385 8.1405 39.3952 8.93325C37.8195 9.69225 37.5105 11.6685 36.6263 13.0928C35.973 12.7118 35.2875 12.4072 34.623 12.4072C34.5653 12.4072 34.509 12.4088 34.4513 12.414C32.994 12.534 31.6717 14.8552 31.0012 15.6622C30.246 16.5735 27.516 17.0535 27.516 17.0535H26.31L26.5957 17.4345H25.9072L26.1285 17.8148H26.8725L27.2362 18.2902H26.406L26.628 18.6705H27.5198L27.9825 19.2877H26.988L27.2798 19.7887H28.3552L28.9155 20.5343H27.7147L28.1497 21.2805H29.4728L30.1763 22.2135H28.695L29.184 23.0527H30.8048L31.6477 24.1725H29.838L30.4912 25.293H32.4622L33.5378 26.6932H31.308L31.9605 27.8123H34.3665L35.7345 29.6325H33.0225L33.882 31.1062H36.8325L38.4818 33.306H35.1653L36.4478 35.505H40.1235L42.195 38.2537H38.0513L39.3337 40.4535H43.8263L46.5 44.0265V6Z" fill="#B0916A"/>
</svg>
