<svg width="48" height="48" viewBox="0 0 48 48" fill="none" xmlns="http://www.w3.org/2000/svg">
<path d="M35 26.614L15.146 7.31405C14.8597 7.03571 14.5195 6.81888 14.1463 6.67688C13.7731 6.53488 13.3748 6.47071 12.9759 6.48832C12.577 6.50593 12.1859 6.60494 11.8267 6.77927C11.4674 6.95361 11.1477 7.19957 10.887 7.50205C10.3363 8.14159 10.0486 8.96619 10.082 9.8095C10.1154 10.6528 10.4674 11.4521 11.067 12.046L21.091 21.976" stroke="#B0916A" stroke-width="4" stroke-linecap="round"/>
<path d="M21.09 21.976L10.178 11.155C9.55422 10.5366 8.71995 10.1764 7.84205 10.1465C6.96415 10.1167 6.10734 10.4194 5.443 10.994C5.12973 11.2651 4.87531 11.5974 4.69545 11.9705C4.51559 12.3437 4.4141 12.7497 4.39723 13.1636C4.38036 13.5775 4.44848 13.9904 4.59739 14.377C4.74629 14.7635 4.97282 15.1154 5.263 15.411L16.256 26.614" stroke="#B0916A" stroke-width="4" stroke-linecap="round" stroke-linejoin="round"/>
<path d="M16.255 26.614L10 20.5C9.39326 19.8804 8.56697 19.5247 7.69991 19.5097C6.83286 19.4947 5.99477 19.8217 5.367 20.42C5.05824 20.7143 4.81077 21.0668 4.63886 21.4572C4.46695 21.8476 4.37399 22.2682 4.36535 22.6946C4.3567 23.1211 4.43254 23.5451 4.58849 23.9421C4.74444 24.3392 4.97742 24.7014 5.274 25.008C14.504 34.544 19.294 39.048 21.091 40.553C24 42.99 29.735 44 32.73 42C35.725 40 38.432 37.154 39.717 34.329C40.482 32.646 41.967 27.459 44.175 18.768C44.2834 18.3414 44.3054 17.8975 44.2399 17.4623C44.1744 17.0271 44.0226 16.6094 43.7934 16.2336C43.5643 15.8579 43.2624 15.5316 42.9055 15.2741C42.5486 15.0166 42.1438 14.833 41.715 14.734C40.833 14.5301 39.9063 14.6759 39.1295 15.1408C38.3527 15.6056 37.7862 16.3534 37.549 17.227L35 26.614M31.716 12.666C29.5695 9.46124 26.5251 6.96116 22.964 5.479M5.194 33.776C7.16996 37.0886 10.0794 39.7445 13.558 41.411" stroke="#B0916A" stroke-width="4" stroke-linecap="round"/>
</svg>
