<svg width="48" height="48" viewBox="0 0 48 48" fill="none" xmlns="http://www.w3.org/2000/svg">
<g clip-path="url(#clip0_7_132)">
<path d="M20.0197 0.173584C17.0418 0.173584 14.9428 2.28189 14.9428 5.25051C14.9428 8.5182 17.5237 10.6431 20.0197 12.6924C20.8357 13.3625 21.6332 14.0364 22.3846 14.7693H9.23077C6.80123 14.7693 4.78338 16.3404 4.03754 18.5188C4.03754 18.5188 4.41415 22.1539 10.1538 22.1539C15.4892 22.1539 15.6868 19.44 15.6923 19.3274C15.7047 19.0919 15.8077 18.8702 15.9797 18.7089C16.1517 18.5475 16.3795 18.4589 16.6154 18.4616C16.8577 18.4694 17.088 18.5692 17.2594 18.7406C17.4308 18.9121 17.5306 19.1423 17.5385 19.3847C17.5458 19.4788 17.8062 22.1539 24 22.1539C30.1938 22.1539 30.4523 19.44 30.4615 19.3274C30.4818 19.0846 30.5951 18.8589 30.7778 18.6976C30.9604 18.5362 31.1983 18.4517 31.4418 18.4616C31.6782 18.4717 31.9012 18.5739 32.0631 18.7465C32.2249 18.919 32.3127 19.1481 32.3077 19.3847C32.3114 19.4825 32.4738 22.1539 37.8462 22.1539C43.7594 22.1539 43.9625 18.5188 43.9625 18.5188C43.2166 16.3422 41.1951 14.7693 38.7692 14.7693H25.6154C26.3733 14.0431 27.1623 13.3501 27.9803 12.6924C30.4745 10.6431 33.0572 8.51635 33.0572 5.25051C33.0572 2.28189 30.96 0.173584 27.9803 0.173584C26.2634 0.173584 24.8105 1.40312 24 2.25051C23.1932 1.40128 21.7348 0.173584 20.0197 0.173584ZM16.6708 21.6351C15.7698 22.8093 13.9237 24 10.1538 24C6.45231 24 4.61354 22.8462 3.69231 21.6924V29.5385H44.3077V21.6924C43.3865 22.837 41.5422 24 37.8462 24C34.0615 24 32.2265 22.8056 31.3274 21.6351C30.3046 22.8037 28.2185 24 24 24C19.7668 24 17.6898 22.8093 16.6726 21.6351H16.6708ZM5.53846 31.3847C3.10892 31.3847 1.09108 32.9557 0.345231 35.1342C0.347077 35.1342 0.721846 38.7693 6.46154 38.7693C11.7969 38.7693 13.8406 36.0554 13.8462 35.9428C13.8585 35.7073 13.9615 35.4856 14.1335 35.3242C14.3056 35.1629 14.5334 35.0743 14.7692 35.077C15.0116 35.0848 15.2418 35.1846 15.4133 35.356C15.5847 35.5275 15.6845 35.7577 15.6923 36C15.6997 36.0942 17.8062 38.7693 24 38.7693C30.1938 38.7693 32.2985 36.0554 32.3077 35.9428C32.328 35.7 32.4412 35.4743 32.6239 35.313C32.8066 35.1516 33.0445 35.0671 33.288 35.077C33.5244 35.0871 33.7474 35.1893 33.9092 35.3619C34.0711 35.5344 34.1589 35.7635 34.1538 36C34.1575 36.0979 36.1662 38.7693 41.5385 38.7693C47.4517 38.7693 47.6548 35.1342 47.6548 35.1342C46.9089 32.9576 44.8874 31.3847 42.4615 31.3847H5.53846ZM14.8265 38.2505C13.9237 39.4247 10.2314 40.6154 6.46154 40.6154C2.76 40.6154 0.921231 39.4616 0 38.3077V44.3077C0 47.365 2.48123 48 5.53846 48H42.4615C45.5188 48 48 47.365 48 44.3077V38.3077C47.0788 39.4524 45.2345 40.6154 41.5385 40.6154C37.7538 40.6154 34.0726 39.421 33.1735 38.2505C32.1508 39.4191 28.2185 40.6154 24 40.6154C19.7668 40.6154 15.8437 39.4247 14.8265 38.2505Z" fill="#B0916A"/>
</g>
<defs>
<clipPath id="clip0_7_132">
<rect width="48" height="48" fill="white"/>
</clipPath>
</defs>
</svg>
